<svg xmlns="http://www.w3.org/2000/svg" viewBox="0 0 800 200" fill="none">
  <rect width="800" height="200" fill="#1a1a1a"/>
  <rect x="50" y="40" width="200" height="120" rx="12" fill="#2a2a2a" stroke="#c8972a" stroke-width="1.5" opacity="0.8"/>
  <rect x="66" y="56" width="168" height="24" rx="4" fill="#c8972a" opacity="0.15"/>
  <text x="150" y="74" font-family="Georgia,serif" font-size="12" fill="#c8972a" text-anchor="middle" opacity="0.9">SIDE HUSTLE IDEAS</text>
  <rect x="66" y="90" width="80" height="8" rx="4" fill="rgba(255,255,255,0.15)"/>
  <rect x="66" y="106" width="120" height="8" rx="4" fill="rgba(255,255,255,0.1)"/>
  <rect x="66" y="122" width="96" height="8" rx="4" fill="rgba(255,255,255,0.1)"/>
  <rect x="66" y="138" width="60" height="8" rx="4" fill="rgba(255,255,255,0.08)"/>
  <path d="M310 100 C310 100 360 60 420 100 S530 140 580 100 S690 60 740 80" stroke="#c8972a" stroke-width="2.5" fill="none" opacity="0.7"/>
  <circle cx="580" cy="100" r="6" fill="#c8972a" opacity="0.9"/>
  <circle cx="420" cy="100" r="6" fill="#c8972a" opacity="0.6"/>
  <circle cx="310" cy="100" r="4" fill="rgba(200,151,42,0.4)"/>
  <text x="650" y="55" font-family="Georgia,serif" font-size="11" fill="rgba(255,255,255,0.4)">+£470/mo</text>
  <text x="390" y="145" font-family="Georgia,serif" font-size="11" fill="rgba(255,255,255,0.4)">avg UK earner</text>
</svg>